<svg xmlns="http://www.w3.org/2000/svg" width="666.7" height="666.7" version="1.0" viewBox="0 0 500 500">
  <path fill="#3b82f6" d="m238 12-41 39c-50 47-92 90-101 105-3 5-2 10 2 14 2 2 4 3 8 3 6 0 7-1 17-13A843 843 0 0 1 239 44l10-10 16 14 36 34c80 74 114 121 127 172a176 176 0 0 1-15 122 185 185 0 0 1-150 100c-2 0-2-2-2-34v-35l15-11c18-15 43-38 49-45 7-8 7-10 7-40v-27l4-2c8-5 12-11 14-21 2-9-1-19-9-26-21-20-54-2-49 26 2 9 6 15 14 21l4 2v50l-10 10-37 33c-2 1-2-3-2-76v-78l5-3c9-6 14-15 13-27s-7-20-17-25c-6-2-7-2-14-2-5 0-9 1-12 3a30 30 0 0 0-1 52l4 2v102l-1 102c-2 0-27-22-40-35l-8-8v-61l5-3c5-3 10-10 12-17 2-5 1-16-2-21-4-6-8-10-14-13-4-2-6-3-13-3-6 0-8 1-13 3-6 4-12 11-14 17-5 13 0 28 11 35l5 2v32c0 40-1 37 16 54l50 44 6 4v9l-1 9h-6A184 184 0 0 1 66 284c1-16 4-27 10-45 4-12 4-14-2-19-4-3-8-4-13-2-7 4-17 39-18 68a205 205 0 0 0 207 213 204 204 0 0 0 204-237c-8-42-29-82-68-128A1532 1532 0 0 0 267 17L250 1l-12 11zm19 176c4 5 4 10 0 15-4 3-4 3-8 3-6-1-10-6-10-11s5-10 11-10c3 0 5 1 7 3zm72 61c4 4 4 10 0 14-3 3-4 3-8 3-7 0-10-3-10-10 0-10 10-14 18-7zm-143 40c3 3 4 7 1 12-1 4-4 5-9 5-6 0-10-4-10-10 0-4 3-9 6-10 4-2 9 0 12 3z"/>
  <path fill="#3b82f6" d="M79 183c-4 1-7 7-7 12 0 9 10 15 17 10 9-6 9-19 0-23-4-1-6-1-10 1z"/>
</svg>